{
	"asset":{
		"generator":"Khronos glTF Blender I/O v3.6.27",
		"version":"2.0"
	},
	"scene":0,
	"scenes":[
		{
			"name":"Scene",
			"nodes":[
				0
			]
		}
	],
	"nodes":[
		{
			"mesh":0,
			"name":"mesh_id38",
			"scale":[
				0.19315454363822937,
				0.19315460324287415,
				0.19315454363822937
			],
			"translation":[
				-0.014001774601638317,
				0.12812858819961548,
				0.08693766593933105
			]
		}
	],
	"materials":[
		{
			"alphaCutoff":0.5,
			"alphaMode":"MASK",
			"doubleSided":true,
			"name":"112",
			"pbrMetallicRoughness":{}
		},
		{
			"alphaCutoff":0.5,
			"alphaMode":"MASK",
			"doubleSided":true,
			"name":"114",
			"pbrMetallicRoughness":{}
		},
		{
			"alphaCutoff":0.5,
			"alphaMode":"MASK",
			"doubleSided":true,
			"name":"116",
			"pbrMetallicRoughness":{}
		},
		{
			"alphaCutoff":0.5,
			"alphaMode":"MASK",
			"doubleSided":true,
			"name":"118",
			"pbrMetallicRoughness":{}
		},
		{
			"alphaCutoff":0.5,
			"alphaMode":"MASK",
			"doubleSided":true,
			"name":"120",
			"pbrMetallicRoughness":{}
		},
		{
			"alphaCutoff":0.5,
			"alphaMode":"MASK",
			"doubleSided":true,
			"name":"122",
			"pbrMetallicRoughness":{}
		},
		{
			"alphaCutoff":0.5,
			"alphaMode":"MASK",
			"doubleSided":true,
			"name":"124",
			"pbrMetallicRoughness":{}
		},
		{
			"alphaCutoff":0.5,
			"alphaMode":"MASK",
			"doubleSided":true,
			"name":"126",
			"pbrMetallicRoughness":{}
		}
	],
	"meshes":[
		{
			"name":"mesh_id38",
			"primitives":[
				{
					"attributes":{
						"POSITION":0,
						"NORMAL":1,
						"TEXCOORD_0":2
					},
					"indices":3,
					"material":0
				},
				{
					"attributes":{
						"POSITION":4,
						"NORMAL":5,
						"TEXCOORD_0":6
					},
					"indices":7,
					"material":1
				},
				{
					"attributes":{
						"POSITION":8,
						"NORMAL":9,
						"TEXCOORD_0":10
					},
					"indices":11,
					"material":2
				},
				{
					"attributes":{
						"POSITION":12,
						"NORMAL":13,
						"TEXCOORD_0":14
					},
					"indices":15,
					"material":3
				},
				{
					"attributes":{
						"POSITION":16,
						"NORMAL":17,
						"TEXCOORD_0":18
					},
					"indices":19,
					"material":4
				},
				{
					"attributes":{
						"POSITION":20,
						"NORMAL":21,
						"TEXCOORD_0":22
					},
					"indices":23,
					"material":5
				},
				{
					"attributes":{
						"POSITION":24,
						"NORMAL":25,
						"TEXCOORD_0":26
					},
					"indices":27,
					"material":6
				},
				{
					"attributes":{
						"POSITION":28,
						"NORMAL":29,
						"TEXCOORD_0":30
					},
					"indices":31,
					"material":7
				}
			]
		}
	],
	"accessors":[
		{
			"bufferView":0,
			"componentType":5126,
			"count":940,
			"max":[
				0.6589616537094116,
				0.678527295589447,
				1.1341818571090698
			],
			"min":[
				-0.6711976528167725,
				-0.3691571354866028,
				-1.1511987447738647
			],
			"type":"VEC3"
		},
		{
			"bufferView":1,
			"componentType":5126,
			"count":940,
			"type":"VEC3"
		},
		{
			"bufferView":2,
			"componentType":5126,
			"count":940,
			"type":"VEC2"
		},
		{
			"bufferView":3,
			"componentType":5123,
			"count":1860,
			"type":"SCALAR"
		},
		{
			"bufferView":4,
			"componentType":5126,
			"count":1099,
			"max":[
				0.6568251848220825,
				0.7457011938095093,
				1.0166592597961426
			],
			"min":[
				-0.6690611839294434,
				-0.6240085959434509,
				-1.3015931844711304
			],
			"type":"VEC3"
		},
		{
			"bufferView":5,
			"componentType":5126,
			"count":1099,
			"type":"VEC3"
		},
		{
			"bufferView":6,
			"componentType":5126,
			"count":1099,
			"type":"VEC2"
		},
		{
			"bufferView":7,
			"componentType":5123,
			"count":2094,
			"type":"SCALAR"
		},
		{
			"bufferView":8,
			"componentType":5126,
			"count":4624,
			"max":[
				0.6257990002632141,
				0.9130032658576965,
				1.080080509185791
			],
			"min":[
				-0.638034999370575,
				-0.7352993488311768,
				-1.1598258018493652
			],
			"type":"VEC3"
		},
		{
			"bufferView":9,
			"componentType":5126,
			"count":4624,
			"type":"VEC3"
		},
		{
			"bufferView":10,
			"componentType":5126,
			"count":4624,
			"type":"VEC2"
		},
		{
			"bufferView":11,
			"componentType":5123,
			"count":7764,
			"type":"SCALAR"
		},
		{
			"bufferView":12,
			"componentType":5126,
			"count":28,
			"max":[
				0.6066887378692627,
				0.6028243899345398,
				0.19475674629211426
			],
			"min":[
				-0.6189247369766235,
				0.2104130983352661,
				-1.105482578277588
			],
			"type":"VEC3"
		},
		{
			"bufferView":13,
			"componentType":5126,
			"count":28,
			"type":"VEC3"
		},
		{
			"bufferView":14,
			"componentType":5126,
			"count":28,
			"type":"VEC2"
		},
		{
			"bufferView":15,
			"componentType":5123,
			"count":48,
			"type":"SCALAR"
		},
		{
			"bufferView":16,
			"componentType":5126,
			"count":2943,
			"max":[
				0.7334450483322144,
				0.23861432075500488,
				1.2275357246398926
			],
			"min":[
				-0.74568110704422,
				-0.6088845729827881,
				-1.1907634735107422
			],
			"type":"VEC3"
		},
		{
			"bufferView":17,
			"componentType":5126,
			"count":2943,
			"type":"VEC3"
		},
		{
			"bufferView":18,
			"componentType":5126,
			"count":2943,
			"type":"VEC2"
		},
		{
			"bufferView":19,
			"componentType":5123,
			"count":5256,
			"type":"SCALAR"
		},
		{
			"bufferView":20,
			"componentType":5126,
			"count":172,
			"max":[
				0.5165969729423523,
				0.027887500822544098,
				1.1806530952453613
			],
			"min":[
				-0.5288329720497131,
				-0.09911597520112991,
				1.1504279375076294
			],
			"type":"VEC3"
		},
		{
			"bufferView":21,
			"componentType":5126,
			"count":172,
			"type":"VEC3"
		},
		{
			"bufferView":22,
			"componentType":5126,
			"count":172,
			"type":"VEC2"
		},
		{
			"bufferView":23,
			"componentType":5123,
			"count":216,
			"type":"SCALAR"
		},
		{
			"bufferView":24,
			"componentType":5126,
			"count":320,
			"max":[
				0.6303134560585022,
				-0.010701380670070648,
				1.142318844795227
			],
			"min":[
				-0.642549455165863,
				-0.21605640649795532,
				-1.164600133895874
			],
			"type":"VEC3"
		},
		{
			"bufferView":25,
			"componentType":5126,
			"count":320,
			"type":"VEC3"
		},
		{
			"bufferView":26,
			"componentType":5126,
			"count":320,
			"type":"VEC2"
		},
		{
			"bufferView":27,
			"componentType":5123,
			"count":480,
			"type":"SCALAR"
		},
		{
			"bufferView":28,
			"componentType":5126,
			"count":80,
			"max":[
				0.5792693495750427,
				0.0017366185784339905,
				-1.1443672180175781
			],
			"min":[
				-0.5915054678916931,
				-0.14570695161819458,
				-1.164600133895874
			],
			"type":"VEC3"
		},
		{
			"bufferView":29,
			"componentType":5126,
			"count":80,
			"type":"VEC3"
		},
		{
			"bufferView":30,
			"componentType":5126,
			"count":80,
			"type":"VEC2"
		},
		{
			"bufferView":31,
			"componentType":5123,
			"count":120,
			"type":"SCALAR"
		}
	],
	"bufferViews":[
		{
			"buffer":0,
			"byteLength":11280,
			"byteOffset":0,
			"target":34962
		},
		{
			"buffer":0,
			"byteLength":11280,
			"byteOffset":11280,
			"target":34962
		},
		{
			"buffer":0,
			"byteLength":7520,
			"byteOffset":22560,
			"target":34962
		},
		{
			"buffer":0,
			"byteLength":3720,
			"byteOffset":30080,
			"target":34963
		},
		{
			"buffer":0,
			"byteLength":13188,
			"byteOffset":33800,
			"target":34962
		},
		{
			"buffer":0,
			"byteLength":13188,
			"byteOffset":46988,
			"target":34962
		},
		{
			"buffer":0,
			"byteLength":8792,
			"byteOffset":60176,
			"target":34962
		},
		{
			"buffer":0,
			"byteLength":4188,
			"byteOffset":68968,
			"target":34963
		},
		{
			"buffer":0,
			"byteLength":55488,
			"byteOffset":73156,
			"target":34962
		},
		{
			"buffer":0,
			"byteLength":55488,
			"byteOffset":128644,
			"target":34962
		},
		{
			"buffer":0,
			"byteLength":36992,
			"byteOffset":184132,
			"target":34962
		},
		{
			"buffer":0,
			"byteLength":15528,
			"byteOffset":221124,
			"target":34963
		},
		{
			"buffer":0,
			"byteLength":336,
			"byteOffset":236652,
			"target":34962
		},
		{
			"buffer":0,
			"byteLength":336,
			"byteOffset":236988,
			"target":34962
		},
		{
			"buffer":0,
			"byteLength":224,
			"byteOffset":237324,
			"target":34962
		},
		{
			"buffer":0,
			"byteLength":96,
			"byteOffset":237548,
			"target":34963
		},
		{
			"buffer":0,
			"byteLength":35316,
			"byteOffset":237644,
			"target":34962
		},
		{
			"buffer":0,
			"byteLength":35316,
			"byteOffset":272960,
			"target":34962
		},
		{
			"buffer":0,
			"byteLength":23544,
			"byteOffset":308276,
			"target":34962
		},
		{
			"buffer":0,
			"byteLength":10512,
			"byteOffset":331820,
			"target":34963
		},
		{
			"buffer":0,
			"byteLength":2064,
			"byteOffset":342332,
			"target":34962
		},
		{
			"buffer":0,
			"byteLength":2064,
			"byteOffset":344396,
			"target":34962
		},
		{
			"buffer":0,
			"byteLength":1376,
			"byteOffset":346460,
			"target":34962
		},
		{
			"buffer":0,
			"byteLength":432,
			"byteOffset":347836,
			"target":34963
		},
		{
			"buffer":0,
			"byteLength":3840,
			"byteOffset":348268,
			"target":34962
		},
		{
			"buffer":0,
			"byteLength":3840,
			"byteOffset":352108,
			"target":34962
		},
		{
			"buffer":0,
			"byteLength":2560,
			"byteOffset":355948,
			"target":34962
		},
		{
			"buffer":0,
			"byteLength":960,
			"byteOffset":358508,
			"target":34963
		},
		{
			"buffer":0,
			"byteLength":960,
			"byteOffset":359468,
			"target":34962
		},
		{
			"buffer":0,
			"byteLength":960,
			"byteOffset":360428,
			"target":34962
		},
		{
			"buffer":0,
			"byteLength":640,
			"byteOffset":361388,
			"target":34962
		},
		{
			"buffer":0,
			"byteLength":240,
			"byteOffset":362028,
			"target":34963
		}
	],
	"buffers":[
		{
			"byteLength":362268,
			"uri":"data:application/octet-stream;base64,"
		}
	]
}
