# Blender 3.6.0
# www.blender.org
mtllib duzYol.mtl
o Cube.001
v 1.000000 0.200000 -1.000000
v 1.000000 0.200000 -1.000000
v 1.000000 -0.200000 -1.000000
v 1.000000 -0.200000 -1.000000
v 1.000000 -0.200000 -1.000000
v 1.000000 0.200000 1.000000
v 1.000000 0.200000 1.000000
v 1.000000 -0.200000 1.000000
v 1.000000 -0.200000 1.000000
v 1.000000 -0.200000 1.000000
v -1.000000 0.200000 -1.000000
v -1.000000 0.200000 -1.000000
v -1.000000 -0.200000 -1.000000
v -1.000000 -0.200000 -1.000000
v -1.000000 -0.200000 -1.000000
v -1.000000 0.200000 1.000000
v -1.000000 0.200000 1.000000
v -1.000000 -0.200000 1.000000
v -1.000000 -0.200000 1.000000
v -1.000000 -0.200000 1.000000
v 0.333333 -0.200000 -1.000000
v 0.333333 -0.200000 -1.000000
v -0.333333 -0.200000 -1.000000
v -0.333333 -0.200000 -1.000000
v 0.333333 0.200000 1.000000
v 0.333333 0.200000 1.000000
v -0.333333 0.200000 1.000000
v -0.333333 0.200000 1.000000
v -0.333333 -0.200000 1.000000
v -0.333333 -0.200000 1.000000
v 0.333333 -0.200000 1.000000
v 0.333333 -0.200000 1.000000
v -0.333333 0.200000 -1.000000
v -0.333333 0.200000 -1.000000
v 0.333333 0.200000 -1.000000
v 0.333333 0.200000 -1.000000
v -0.333333 0.300000 1.000000
v -0.333333 0.300000 1.000000
v -0.333333 0.300000 1.000000
v -1.000000 0.300000 1.000000
v -1.000000 0.300000 1.000000
v -1.000000 0.300000 1.000000
v 1.000000 0.300000 -1.000000
v 1.000000 0.300000 -1.000000
v 1.000000 0.300000 -1.000000
v 1.000000 0.300000 1.000000
v 1.000000 0.300000 1.000000
v 1.000000 0.300000 1.000000
v -1.000000 0.300000 -1.000000
v -1.000000 0.300000 -1.000000
v -1.000000 0.300000 -1.000000
v 0.333333 0.300000 -1.000000
v 0.333333 0.300000 -1.000000
v 0.333333 0.300000 -1.000000
v 0.333333 0.300000 1.000000
v 0.333333 0.300000 1.000000
v 0.333333 0.300000 1.000000
v -0.333333 0.300000 -1.000000
v -0.333333 0.300000 -1.000000
v -0.333333 0.300000 -1.000000
v -0.050000 0.200000 0.750000
v -0.050000 0.200000 0.750000
v -0.050000 0.200000 0.750000
v -0.050000 0.250000 0.750000
v -0.050000 0.250000 0.750000
v -0.050000 0.250000 0.750000
v 0.050000 0.200000 0.750000
v 0.050000 0.200000 0.750000
v 0.050000 0.200000 0.750000
v 0.050000 0.250000 0.750000
v 0.050000 0.250000 0.750000
v 0.050000 0.250000 0.750000
v -0.050000 0.200000 1.000000
v -0.050000 0.200000 1.000000
v -0.050000 0.200000 1.000000
v -0.050000 0.250000 1.000000
v -0.050000 0.250000 1.000000
v -0.050000 0.250000 1.000000
v 0.050000 0.200000 1.000000
v 0.050000 0.200000 1.000000
v 0.050000 0.200000 1.000000
v 0.050000 0.250000 1.000000
v 0.050000 0.250000 1.000000
v 0.050000 0.250000 1.000000
v -0.050000 0.200000 0.250000
v -0.050000 0.200000 0.250000
v -0.050000 0.200000 0.250000
v -0.050000 0.200000 -0.250000
v -0.050000 0.200000 -0.250000
v -0.050000 0.200000 -0.250000
v -0.050000 0.250000 0.250000
v -0.050000 0.250000 0.250000
v -0.050000 0.250000 0.250000
v 0.050000 0.200000 0.250000
v 0.050000 0.200000 0.250000
v 0.050000 0.200000 0.250000
v 0.050000 0.200000 -0.250000
v 0.050000 0.200000 -0.250000
v 0.050000 0.200000 -0.250000
v 0.050000 0.250000 0.250000
v 0.050000 0.250000 0.250000
v 0.050000 0.250000 0.250000
v 0.050000 0.250000 -0.250000
v 0.050000 0.250000 -0.250000
v 0.050000 0.250000 -0.250000
v -0.050000 0.250000 -0.250000
v -0.050000 0.250000 -0.250000
v -0.050000 0.250000 -0.250000
v -0.050000 0.200000 -0.750000
v -0.050000 0.200000 -0.750000
v -0.050000 0.200000 -0.750000
v -0.050000 0.250000 -0.750000
v -0.050000 0.250000 -0.750000
v -0.050000 0.250000 -0.750000
v 0.050000 0.200000 -0.750000
v 0.050000 0.200000 -0.750000
v 0.050000 0.200000 -0.750000
v 0.050000 0.250000 -0.750000
v 0.050000 0.250000 -0.750000
v 0.050000 0.250000 -0.750000
v -0.050000 0.200000 -1.000000
v -0.050000 0.200000 -1.000000
v -0.050000 0.200000 -1.000000
v 0.050000 0.200000 -1.000000
v 0.050000 0.200000 -1.000000
v 0.050000 0.200000 -1.000000
v 0.050000 0.250000 -1.000000
v 0.050000 0.250000 -1.000000
v 0.050000 0.250000 -1.000000
v -0.050000 0.250000 -1.000000
v -0.050000 0.250000 -1.000000
v -0.050000 0.250000 -1.000000
v 0.333333 -0.200000 -1.000000
v 0.333333 -0.200000 -1.000000
v -0.333333 -0.200000 -1.000000
v -0.333333 -0.200000 -1.000000
v 0.333333 0.200000 1.000000
v 0.333333 0.200000 1.000000
v -0.333333 0.200000 1.000000
v -0.333333 0.200000 1.000000
v -0.333333 -0.200000 1.000000
v -0.333333 -0.200000 1.000000
v 0.333333 -0.200000 1.000000
v 0.333333 -0.200000 1.000000
v -0.333333 0.200000 -1.000000
v -0.333333 0.200000 -1.000000
v 0.333333 0.200000 -1.000000
v 0.333333 0.200000 -1.000000
v 0.000000 -0.200000 -1.000000
v 0.000000 -0.200000 -1.000000
v 0.000000 0.200000 1.000000
v 0.000000 0.200000 1.000000
v 0.000000 -0.200000 1.000000
v 0.000000 -0.200000 1.000000
v 0.000000 0.200000 -1.000000
v 0.000000 0.200000 -1.000000
vn -0.0000 -0.0000 -1.0000
vn -0.0000 -0.0000 1.0000
vn -1.0000 -0.0000 -0.0000
vn -0.0000 -1.0000 -0.0000
vn 1.0000 -0.0000 -0.0000
vn -0.0000 1.0000 -0.0000
vt 0.560170 0.666795
vt 0.560170 0.500385
vt 0.585131 0.500385
vt 0.585131 0.666795
vt 0.585902 0.500385
vt 0.685747 0.500385
vt 0.685747 0.666795
vt 0.585902 0.666795
vt 0.292373 0.999615
vt 0.192527 0.999615
vt 0.192527 0.500385
vt 0.292373 0.500385
vt 0.334746 0.000385
vt 0.501156 0.000385
vt 0.501156 0.499615
vt 0.334746 0.499615
vt 0.836287 0.000385
vt 0.936133 0.000385
vt 0.936133 0.499615
vt 0.836287 0.499615
vt 0.459553 0.666795
vt 0.359707 0.666795
vt 0.359707 0.500385
vt 0.459553 0.500385
vt 0.460324 0.500385
vt 0.460324 0.666795
vt 0.501926 0.000385
vt 0.668336 0.000385
vt 0.668336 0.499615
vt 0.501926 0.499615
vt 0.459553 0.833975
vt 0.359707 0.833975
vt 0.359707 0.667566
vt 0.459553 0.667566
vt 0.167566 0.999615
vt 0.167566 0.500385
vt 0.166795 0.499615
vt 0.000385 0.499615
vt 0.000385 0.000385
vt 0.166795 0.000385
vt 0.333975 0.499615
vt 0.167566 0.499615
vt 0.167566 0.000385
vt 0.333975 0.000385
vt 0.961094 0.000385
vt 0.961094 0.499615
vt 0.961865 0.499615
vt 0.961865 0.000385
vt 0.986826 0.000385
vt 0.986826 0.499615
vt 0.334746 0.833975
vt 0.334746 0.667566
vt 0.334746 0.666795
vt 0.334746 0.500385
vt 0.710709 0.500385
vt 0.710709 0.666795
vt 0.318105 0.500385
vt 0.318105 0.999615
vt 0.293143 0.999615
vt 0.293143 0.500385
vt 0.741063 0.729969
vt 0.728583 0.729969
vt 0.728583 0.667566
vt 0.741063 0.667566
vt 0.677889 0.755701
vt 0.665409 0.755701
vt 0.665409 0.730740
vt 0.677889 0.730740
vt 0.612404 0.667566
vt 0.637365 0.667566
vt 0.637365 0.729969
vt 0.612404 0.729969
vt 0.663868 0.667566
vt 0.688829 0.667566
vt 0.688829 0.729969
vt 0.663868 0.729969
vt 0.755085 0.667566
vt 0.767566 0.667566
vt 0.767566 0.729969
vt 0.755085 0.729969
vt 0.625655 0.730740
vt 0.638136 0.730740
vt 0.638136 0.755701
vt 0.625655 0.755701
vt 0.586672 0.667566
vt 0.611633 0.667566
vt 0.611633 0.792373
vt 0.586672 0.792373
vt 0.331356 0.625193
vt 0.318875 0.625193
vt 0.318875 0.500385
vt 0.331356 0.500385
vt 0.651387 0.755701
vt 0.638906 0.755701
vt 0.638906 0.730740
vt 0.651387 0.730740
vt 0.318875 0.625963
vt 0.331356 0.625963
vt 0.331356 0.750770
vt 0.318875 0.750770
vt 0.585902 0.792373
vt 0.560940 0.792373
vt 0.560940 0.667566
vt 0.585902 0.667566
vt 0.691140 0.755701
vt 0.678660 0.755701
vt 0.678660 0.730740
vt 0.691140 0.730740
vt 0.689600 0.667566
vt 0.714561 0.667566
vt 0.714561 0.729969
vt 0.689600 0.729969
vt 0.664638 0.755701
vt 0.652157 0.755701
vt 0.652157 0.730740
vt 0.664638 0.730740
vt 0.741834 0.667566
vt 0.754315 0.667566
vt 0.754315 0.729969
vt 0.741834 0.729969
vt 0.663097 0.729969
vt 0.638136 0.729969
vt 0.638136 0.667566
vt 0.663097 0.667566
vt 0.727812 0.729969
vt 0.715331 0.729969
vt 0.715331 0.667566
vt 0.727812 0.667566
vt 0.624885 0.730740
vt 0.624885 0.755701
vt 0.612404 0.755701
vt 0.612404 0.730740
vt 0.560170 0.750771
vt 0.460324 0.750771
vt 0.460324 0.667566
vt 0.560170 0.667566
vt 0.752311 0.000385
vt 0.835516 0.000385
vt 0.835516 0.499615
vt 0.752311 0.499615
vt 0.711479 0.583590
vt 0.811325 0.583590
vt 0.811325 0.666795
vt 0.711479 0.666795
vt 0.083590 0.500385
vt 0.166795 0.500385
vt 0.166795 0.999615
vt 0.083590 0.999615
vt 0.000385 0.500385
vt 0.000385 0.999615
vt 0.711479 0.500385
vt 0.811325 0.500385
vt 0.669106 0.000385
vt 0.669106 0.499615
vt 0.560170 0.833975
vt 0.460324 0.833975
s 0
usemtl White
f 33/1/1 12/2/1 50/3/1
f 33/1/1 50/3/1 58/4/1
f 30/5/2 27/6/2 17/7/2
f 30/5/2 17/7/2 20/8/2
f 18/9/3 16/10/3 11/11/3
f 18/9/3 11/11/3 13/12/3
f 21/13/4 3/14/4 8/15/4
f 21/13/4 8/15/4 31/16/4
f 5/17/5 2/18/5 7/19/5
f 5/17/5 7/19/5 10/20/5
f 22/21/1 36/22/1 1/23/1
f 22/21/1 1/23/1 4/24/1
f 15/25/1 12/2/1 33/1/1
f 15/25/1 33/1/1 24/26/1
f 14/27/4 23/28/4 29/29/4
f 14/27/4 29/29/4 19/30/4
f 9/31/2 6/32/2 26/33/2
f 9/31/2 26/33/2 32/34/2
f 11/11/3 16/10/3 40/35/3
f 11/11/3 40/35/3 49/36/3
f 59/37/6 51/38/6 42/39/6
f 59/37/6 42/39/6 38/40/6
f 44/41/6 54/42/6 57/43/6
f 44/41/6 57/43/6 47/44/6
f 7/19/5 2/18/5 45/45/5
f 7/19/5 45/45/5 48/46/5
f 28/47/5 34/48/5 60/49/5
f 28/47/5 60/49/5 39/50/5
f 26/33/2 6/32/2 46/51/2
f 26/33/2 46/51/2 56/52/2
f 1/23/1 36/22/1 53/53/1
f 1/23/1 53/53/1 43/54/1
f 17/7/2 27/6/2 37/55/2
f 17/7/2 37/55/2 41/56/2
f 35/57/3 25/58/3 55/59/3
f 35/57/3 55/59/3 52/60/3
f 73/61/3 76/62/3 64/63/3
f 73/61/3 64/63/3 61/64/3
f 63/65/1 65/66/1 70/67/1
f 63/65/1 70/67/1 68/68/1
f 71/69/6 66/70/6 78/71/6
f 71/69/6 78/71/6 83/72/6
f 62/73/4 67/74/4 79/75/4
f 62/73/4 79/75/4 74/76/4
f 69/77/5 72/78/5 84/79/5
f 69/77/5 84/79/5 81/80/5
f 77/81/2 75/82/2 80/83/2
f 77/81/2 80/83/2 82/84/2
f 89/85/4 97/86/4 94/87/4
f 89/85/4 94/87/4 86/88/4
f 85/89/3 91/90/3 106/91/3
f 85/89/3 106/91/3 88/92/3
f 95/93/2 100/94/2 92/95/2
f 95/93/2 92/95/2 87/96/2
f 99/97/5 105/98/5 102/99/5
f 99/97/5 102/99/5 96/100/5
f 104/101/6 108/102/6 93/103/6
f 104/101/6 93/103/6 101/104/6
f 90/105/1 107/106/1 103/107/1
f 90/105/1 103/107/1 98/108/1
f 122/109/4 124/110/4 115/111/4
f 122/109/4 115/111/4 110/112/4
f 116/113/2 118/114/2 113/115/2
f 116/113/2 113/115/2 111/116/2
f 126/117/5 129/118/5 120/119/5
f 126/117/5 120/119/5 117/120/5
f 128/121/6 132/122/6 114/123/6
f 128/121/6 114/123/6 119/124/6
f 109/125/3 112/126/3 130/127/3
f 109/125/3 130/127/3 121/128/3
f 131/129/1 127/130/1 125/131/1
f 131/129/1 125/131/1 123/132/1
usemtl Black
f 150/133/1 155/134/1 147/135/1
f 150/133/1 147/135/1 134/136/1
f 149/137/4 133/138/4 143/139/4
f 149/137/4 143/139/4 153/140/4
f 154/141/2 151/142/2 139/143/2
f 154/141/2 139/143/2 142/144/2
f 156/145/6 146/146/6 140/147/6
f 156/145/6 140/147/6 152/148/6
f 148/149/6 156/145/6 152/148/6
f 148/149/6 152/148/6 138/150/6
f 144/151/2 137/152/2 151/142/2
f 144/151/2 151/142/2 154/141/2
f 135/153/4 149/137/4 153/140/4
f 135/153/4 153/140/4 141/154/4
f 136/155/1 145/156/1 155/134/1
f 136/155/1 155/134/1 150/133/1
