{
	"asset":{
		"generator":"Khronos glTF Blender I/O v3.6.27",
		"version":"2.0"
	},
	"scene":0,
	"scenes":[
		{
			"name":"Scene",
			"nodes":[
				0
			]
		}
	],
	"nodes":[
		{
			"mesh":0,
			"name":"Helicopter.001",
			"scale":[
				0.1137440949678421,
				0.1137440949678421,
				0.1137440949678421
			],
			"translation":[
				-0.23752588033676147,
				3.3989663124084473,
				-0.8877692818641663
			]
		}
	],
	"animations":[
		{
			"channels":[
				{
					"sampler":0,
					"target":{
						"node":0,
						"path":"rotation"
					}
				}
			],
			"name":"Helicopter.001Action",
			"samplers":[
				{
					"input":4,
					"interpolation":"LINEAR",
					"output":5
				}
			]
		}
	],
	"materials":[
		{
			"doubleSided":true,
			"name":"Black",
			"pbrMetallicRoughness":{
				"baseColorTexture":{
					"index":0
				},
				"metallicFactor":0,
				"roughnessFactor":0.5
			}
		}
	],
	"meshes":[
		{
			"name":"Cylinder.001",
			"primitives":[
				{
					"attributes":{
						"POSITION":0,
						"NORMAL":1,
						"TEXCOORD_0":2
					},
					"indices":3,
					"material":0
				}
			]
		}
	],
	"textures":[
		{
			"sampler":0,
			"source":0
		}
	],
	"images":[
		{
			"bufferView":4,
			"mimeType":"image/png",
			"name":"Black"
		}
	],
	"accessors":[
		{
			"bufferView":0,
			"componentType":5126,
			"count":779,
			"max":[
				24.507389068603516,
				4.378460884094238,
				24.51387596130371
			],
			"min":[
				-24.507389068603516,
				-1,
				-24.51387596130371
			],
			"type":"VEC3"
		},
		{
			"bufferView":1,
			"componentType":5126,
			"count":779,
			"type":"VEC3"
		},
		{
			"bufferView":2,
			"componentType":5126,
			"count":779,
			"type":"VEC2"
		},
		{
			"bufferView":3,
			"componentType":5123,
			"count":2484,
			"type":"SCALAR"
		},
		{
			"bufferView":5,
			"componentType":5126,
			"count":250,
			"max":[
				10.416666666666666
			],
			"min":[
				0.041666666666666664
			],
			"type":"SCALAR"
		},
		{
			"bufferView":6,
			"componentType":5126,
			"count":250,
			"type":"VEC4"
		}
	],
	"bufferViews":[
		{
			"buffer":0,
			"byteLength":9348,
			"byteOffset":0,
			"target":34962
		},
		{
			"buffer":0,
			"byteLength":9348,
			"byteOffset":9348,
			"target":34962
		},
		{
			"buffer":0,
			"byteLength":6232,
			"byteOffset":18696,
			"target":34962
		},
		{
			"buffer":0,
			"byteLength":4968,
			"byteOffset":24928,
			"target":34963
		},
		{
			"buffer":0,
			"byteLength":20719,
			"byteOffset":29896
		},
		{
			"buffer":0,
			"byteLength":1000,
			"byteOffset":50616
		},
		{
			"buffer":0,
			"byteLength":4000,
			"byteOffset":51616
		}
	],
	"samplers":[
		{
			"magFilter":9729,
			"minFilter":9987
		}
	],
	"buffers":[
		{
			"byteLength":55616,
			"uri":"data:application/octet-stream;base64,"
		}
	]
}
