{
	"asset":{
		"generator":"Khronos glTF Blender I/O v3.6.27",
		"version":"2.0"
	},
	"scene":0,
	"scenes":[
		{
			"name":"Scene",
			"nodes":[
				0,
				1,
				2,
				3
			]
		}
	],
	"nodes":[
		{
			"mesh":0,
			"name":"Cylinder.004",
			"scale":[
				3.384988784790039,
				3.384988784790039,
				3.384988784790039
			],
			"translation":[
				0,
				-0.31886449456214905,
				0
			]
		},
		{
			"mesh":1,
			"name":"Cylinder.003",
			"scale":[
				3.384988784790039,
				3.384988784790039,
				3.384988784790039
			],
			"translation":[
				0,
				-0.31886449456214905,
				0
			]
		},
		{
			"mesh":2,
			"name":"Cylinder.002",
			"scale":[
				3.384988784790039,
				3.384988784790039,
				3.384988784790039
			],
			"translation":[
				0,
				-0.31886449456214905,
				0
			]
		},
		{
			"mesh":3,
			"name":"Cylinder.001",
			"scale":[
				3.384988784790039,
				3.384988784790039,
				3.384988784790039
			],
			"translation":[
				0,
				-0.31886449456214905,
				0
			]
		}
	],
	"materials":[
		{
			"doubleSided":true,
			"name":"Material.005",
			"pbrMetallicRoughness":{
				"baseColorTexture":{
					"index":0
				},
				"metallicFactor":0,
				"roughnessFactor":0.5
			}
		},
		{
			"doubleSided":true,
			"name":"Material.006",
			"pbrMetallicRoughness":{
				"baseColorFactor":[
					0.800000011920929,
					0.800000011920929,
					0.800000011920929,
					1
				],
				"metallicFactor":0,
				"roughnessFactor":0.5
			}
		},
		{
			"doubleSided":true,
			"name":"Material.004",
			"pbrMetallicRoughness":{
				"baseColorTexture":{
					"index":1
				},
				"metallicFactor":0,
				"roughnessFactor":0.5
			}
		}
	],
	"meshes":[
		{
			"name":"Cylinder.004",
			"primitives":[
				{
					"attributes":{
						"POSITION":0,
						"NORMAL":1,
						"TEXCOORD_0":2
					},
					"indices":3,
					"material":0
				}
			]
		},
		{
			"name":"Cylinder.005",
			"primitives":[
				{
					"attributes":{
						"POSITION":4,
						"NORMAL":5,
						"TEXCOORD_0":6
					},
					"indices":7,
					"material":0
				}
			]
		},
		{
			"name":"Cylinder.002",
			"primitives":[
				{
					"attributes":{
						"POSITION":8,
						"NORMAL":9,
						"TEXCOORD_0":10
					},
					"indices":11,
					"material":1
				}
			]
		},
		{
			"name":"Cylinder.012",
			"primitives":[
				{
					"attributes":{
						"POSITION":12,
						"NORMAL":13,
						"TEXCOORD_0":14
					},
					"indices":15,
					"material":2
				},
				{
					"attributes":{
						"POSITION":16,
						"NORMAL":17,
						"TEXCOORD_0":18
					},
					"indices":19,
					"material":2
				},
				{
					"attributes":{
						"POSITION":20,
						"NORMAL":21,
						"TEXCOORD_0":22
					},
					"indices":23,
					"material":0
				}
			]
		}
	],
	"textures":[
		{
			"sampler":0,
			"source":0
		},
		{
			"sampler":0,
			"source":1
		}
	],
	"images":[
		{
			"bufferView":4,
			"mimeType":"image/png",
			"name":"gri"
		},
		{
			"bufferView":17,
			"mimeType":"image/png",
			"name":"sari"
		}
	],
	"accessors":[
		{
			"bufferView":0,
			"componentType":5126,
			"count":192,
			"max":[
				-0.12093628942966461,
				0.2994580566883087,
				0.8586533665657043
			],
			"min":[
				-0.5187451839447021,
				0.006894094403833151,
				0.6856743693351746
			],
			"type":"VEC3"
		},
		{
			"bufferView":1,
			"componentType":5126,
			"count":192,
			"type":"VEC3"
		},
		{
			"bufferView":2,
			"componentType":5126,
			"count":192,
			"type":"VEC2"
		},
		{
			"bufferView":3,
			"componentType":5123,
			"count":288,
			"type":"SCALAR"
		},
		{
			"bufferView":5,
			"componentType":5126,
			"count":192,
			"max":[
				0.8586533665657043,
				0.2994580566883087,
				0.5187451839447021
			],
			"min":[
				0.6856743693351746,
				0.006894094403833151,
				0.12093628942966461
			],
			"type":"VEC3"
		},
		{
			"bufferView":6,
			"componentType":5126,
			"count":192,
			"type":"VEC3"
		},
		{
			"bufferView":7,
			"componentType":5126,
			"count":192,
			"type":"VEC2"
		},
		{
			"bufferView":8,
			"componentType":5123,
			"count":288,
			"type":"SCALAR"
		},
		{
			"bufferView":9,
			"componentType":5126,
			"count":384,
			"max":[
				0.9146462678909302,
				0.2994580566883087,
				0.9146462678909302
			],
			"min":[
				-0.9146462678909302,
				0.006894094869494438,
				-0.9146462678909302
			],
			"type":"VEC3"
		},
		{
			"bufferView":10,
			"componentType":5126,
			"count":384,
			"type":"VEC3"
		},
		{
			"bufferView":11,
			"componentType":5126,
			"count":384,
			"type":"VEC2"
		},
		{
			"bufferView":12,
			"componentType":5123,
			"count":576,
			"type":"SCALAR"
		},
		{
			"bufferView":13,
			"componentType":5126,
			"count":356,
			"max":[
				1.3446487188339233,
				0.3569183349609375,
				0.9295832514762878
			],
			"min":[
				-0.9295832514762878,
				-0.019406437873840332,
				-0.9295832514762878
			],
			"type":"VEC3"
		},
		{
			"bufferView":14,
			"componentType":5126,
			"count":356,
			"type":"VEC3"
		},
		{
			"bufferView":15,
			"componentType":5126,
			"count":356,
			"type":"VEC2"
		},
		{
			"bufferView":16,
			"componentType":5123,
			"count":864,
			"type":"SCALAR"
		},
		{
			"bufferView":18,
			"componentType":5126,
			"count":120,
			"max":[
				1,
				0.3569183349609375,
				1
			],
			"min":[
				-1,
				0.2994580566883087,
				-1
			],
			"type":"VEC3"
		},
		{
			"bufferView":19,
			"componentType":5126,
			"count":120,
			"type":"VEC3"
		},
		{
			"bufferView":20,
			"componentType":5126,
			"count":120,
			"type":"VEC2"
		},
		{
			"bufferView":21,
			"componentType":5123,
			"count":306,
			"type":"SCALAR"
		},
		{
			"bufferView":22,
			"componentType":5126,
			"count":8,
			"max":[
				0.9404606819152832,
				0.3382709324359894,
				0.9404606819152832
			],
			"min":[
				-0.9404606819152832,
				0.3382709324359894,
				-0.9404606819152832
			],
			"type":"VEC3"
		},
		{
			"bufferView":23,
			"componentType":5126,
			"count":8,
			"type":"VEC3"
		},
		{
			"bufferView":24,
			"componentType":5126,
			"count":8,
			"type":"VEC2"
		},
		{
			"bufferView":25,
			"componentType":5123,
			"count":18,
			"type":"SCALAR"
		}
	],
	"bufferViews":[
		{
			"buffer":0,
			"byteLength":2304,
			"byteOffset":0,
			"target":34962
		},
		{
			"buffer":0,
			"byteLength":2304,
			"byteOffset":2304,
			"target":34962
		},
		{
			"buffer":0,
			"byteLength":1536,
			"byteOffset":4608,
			"target":34962
		},
		{
			"buffer":0,
			"byteLength":576,
			"byteOffset":6144,
			"target":34963
		},
		{
			"buffer":0,
			"byteLength":20722,
			"byteOffset":6720
		},
		{
			"buffer":0,
			"byteLength":2304,
			"byteOffset":27444,
			"target":34962
		},
		{
			"buffer":0,
			"byteLength":2304,
			"byteOffset":29748,
			"target":34962
		},
		{
			"buffer":0,
			"byteLength":1536,
			"byteOffset":32052,
			"target":34962
		},
		{
			"buffer":0,
			"byteLength":576,
			"byteOffset":33588,
			"target":34963
		},
		{
			"buffer":0,
			"byteLength":4608,
			"byteOffset":34164,
			"target":34962
		},
		{
			"buffer":0,
			"byteLength":4608,
			"byteOffset":38772,
			"target":34962
		},
		{
			"buffer":0,
			"byteLength":3072,
			"byteOffset":43380,
			"target":34962
		},
		{
			"buffer":0,
			"byteLength":1152,
			"byteOffset":46452,
			"target":34963
		},
		{
			"buffer":0,
			"byteLength":4272,
			"byteOffset":47604,
			"target":34962
		},
		{
			"buffer":0,
			"byteLength":4272,
			"byteOffset":51876,
			"target":34962
		},
		{
			"buffer":0,
			"byteLength":2848,
			"byteOffset":56148,
			"target":34962
		},
		{
			"buffer":0,
			"byteLength":1728,
			"byteOffset":58996,
			"target":34963
		},
		{
			"buffer":0,
			"byteLength":20721,
			"byteOffset":60724
		},
		{
			"buffer":0,
			"byteLength":1440,
			"byteOffset":81448,
			"target":34962
		},
		{
			"buffer":0,
			"byteLength":1440,
			"byteOffset":82888,
			"target":34962
		},
		{
			"buffer":0,
			"byteLength":960,
			"byteOffset":84328,
			"target":34962
		},
		{
			"buffer":0,
			"byteLength":612,
			"byteOffset":85288,
			"target":34963
		},
		{
			"buffer":0,
			"byteLength":96,
			"byteOffset":85900,
			"target":34962
		},
		{
			"buffer":0,
			"byteLength":96,
			"byteOffset":85996,
			"target":34962
		},
		{
			"buffer":0,
			"byteLength":64,
			"byteOffset":86092,
			"target":34962
		},
		{
			"buffer":0,
			"byteLength":36,
			"byteOffset":86156,
			"target":34963
		}
	],
	"samplers":[
		{
			"magFilter":9729,
			"minFilter":9987
		}
	],
	"buffers":[
		{
			"byteLength":86192,
			"uri":"data:application/octet-stream;base64,"
		}
	]
}
